<mxfile host="app.diagrams.net" agent="Mozilla/5.0 (Windows NT 10.0; Win64; x64) AppleWebKit/537.36 (KHTML, like Gecko) Chrome/127.0.0.0 Safari/537.36" version="24.7.7">
  <diagram name="Página-1" id="EyuFM0uQL2SnO9rVLgQ0">
    <mxGraphModel dx="2333" dy="1140" grid="1" gridSize="10" guides="1" tooltips="1" connect="1" arrows="1" fold="1" page="1" pageScale="1" pageWidth="827" pageHeight="1169" math="0" shadow="0">
      <root>
        <mxCell id="0" />
        <mxCell id="1" parent="0" />
        <mxCell id="rkHEos5GqPBNFd0noKPK-7" value="Departamento" style="rounded=1;arcSize=10;whiteSpace=wrap;html=1;align=center;" vertex="1" parent="1">
          <mxGeometry x="333" y="520" width="100" height="40" as="geometry" />
        </mxCell>
        <mxCell id="rkHEos5GqPBNFd0noKPK-8" value="Funcionário" style="rounded=1;arcSize=10;whiteSpace=wrap;html=1;align=center;" vertex="1" parent="1">
          <mxGeometry x="333" y="910" width="100" height="40" as="geometry" />
        </mxCell>
        <mxCell id="rkHEos5GqPBNFd0noKPK-9" value="Possui" style="shape=rhombus;perimeter=rhombusPerimeter;whiteSpace=wrap;html=1;align=center;rotation=0;" vertex="1" parent="1">
          <mxGeometry x="263" y="700" width="96" height="50" as="geometry" />
        </mxCell>
        <mxCell id="rkHEos5GqPBNFd0noKPK-10" value="Id" style="ellipse;whiteSpace=wrap;html=1;align=center;" vertex="1" parent="1">
          <mxGeometry x="463" y="530" width="75" height="30" as="geometry" />
        </mxCell>
        <mxCell id="rkHEos5GqPBNFd0noKPK-11" value="Nome" style="ellipse;whiteSpace=wrap;html=1;align=center;" vertex="1" parent="1">
          <mxGeometry x="345.5" y="460" width="75" height="30" as="geometry" />
        </mxCell>
        <mxCell id="rkHEos5GqPBNFd0noKPK-12" value="IdGerente" style="ellipse;whiteSpace=wrap;html=1;align=center;dashed=1;" vertex="1" parent="1">
          <mxGeometry x="437.5" y="470" width="75" height="30" as="geometry" />
        </mxCell>
        <mxCell id="rkHEos5GqPBNFd0noKPK-13" value="&lt;span style=&quot;border-bottom: 1px dotted&quot;&gt;CPF&lt;/span&gt;" style="ellipse;whiteSpace=wrap;html=1;align=center;" vertex="1" parent="1">
          <mxGeometry x="243" y="860" width="75" height="30" as="geometry" />
        </mxCell>
        <mxCell id="rkHEos5GqPBNFd0noKPK-16" value="QtdFunc" style="ellipse;whiteSpace=wrap;html=1;align=center;dashed=1;" vertex="1" parent="1">
          <mxGeometry x="255.5" y="470" width="75" height="30" as="geometry" />
        </mxCell>
        <mxCell id="rkHEos5GqPBNFd0noKPK-18" value="DataGerente" style="ellipse;whiteSpace=wrap;html=1;align=center;" vertex="1" parent="1">
          <mxGeometry x="223" y="530" width="75" height="30" as="geometry" />
        </mxCell>
        <mxCell id="rkHEos5GqPBNFd0noKPK-20" style="edgeStyle=orthogonalEdgeStyle;rounded=0;orthogonalLoop=1;jettySize=auto;html=1;exitX=0.5;exitY=1;exitDx=0;exitDy=0;" edge="1" parent="1" source="rkHEos5GqPBNFd0noKPK-12" target="rkHEos5GqPBNFd0noKPK-12">
          <mxGeometry relative="1" as="geometry" />
        </mxCell>
        <mxCell id="rkHEos5GqPBNFd0noKPK-23" value="PNome" style="ellipse;whiteSpace=wrap;html=1;align=center;" vertex="1" parent="1">
          <mxGeometry x="298" y="1050" width="75" height="30" as="geometry" />
        </mxCell>
        <mxCell id="rkHEos5GqPBNFd0noKPK-24" value="Endereço" style="ellipse;whiteSpace=wrap;html=1;align=center;" vertex="1" parent="1">
          <mxGeometry x="495.5" y="915" width="75" height="30" as="geometry" />
        </mxCell>
        <mxCell id="rkHEos5GqPBNFd0noKPK-25" value="Sexo" style="ellipse;whiteSpace=wrap;html=1;align=center;" vertex="1" parent="1">
          <mxGeometry x="420.5" y="970" width="75" height="30" as="geometry" />
        </mxCell>
        <mxCell id="rkHEos5GqPBNFd0noKPK-26" value="DataNasc" style="ellipse;whiteSpace=wrap;html=1;align=center;" vertex="1" parent="1">
          <mxGeometry x="255.5" y="970" width="75" height="30" as="geometry" />
        </mxCell>
        <mxCell id="rkHEos5GqPBNFd0noKPK-27" value="Nome" style="ellipse;whiteSpace=wrap;html=1;align=center;strokeColor=default;perimeterSpacing=16;" vertex="1" parent="1">
          <mxGeometry x="345.5" y="990" width="75" height="30" as="geometry" />
        </mxCell>
        <mxCell id="rkHEos5GqPBNFd0noKPK-29" value="" style="endArrow=none;html=1;rounded=0;exitX=0.5;exitY=1;exitDx=0;exitDy=0;entryX=0.5;entryY=0;entryDx=0;entryDy=0;" edge="1" parent="1" source="rkHEos5GqPBNFd0noKPK-7" target="rkHEos5GqPBNFd0noKPK-9">
          <mxGeometry relative="1" as="geometry">
            <mxPoint x="193" y="600" as="sourcePoint" />
            <mxPoint x="343" y="600" as="targetPoint" />
          </mxGeometry>
        </mxCell>
        <mxCell id="rkHEos5GqPBNFd0noKPK-31" value="Salário" style="ellipse;whiteSpace=wrap;html=1;align=center;" vertex="1" parent="1">
          <mxGeometry x="220" y="915" width="75" height="30" as="geometry" />
        </mxCell>
        <mxCell id="rkHEos5GqPBNFd0noKPK-32" value="" style="endArrow=none;html=1;rounded=0;exitX=0.5;exitY=1;exitDx=0;exitDy=0;entryX=0.5;entryY=0;entryDx=0;entryDy=0;" edge="1" parent="1" source="rkHEos5GqPBNFd0noKPK-9" target="rkHEos5GqPBNFd0noKPK-8">
          <mxGeometry relative="1" as="geometry">
            <mxPoint x="393" y="600" as="sourcePoint" />
            <mxPoint x="553" y="600" as="targetPoint" />
          </mxGeometry>
        </mxCell>
        <mxCell id="rkHEos5GqPBNFd0noKPK-33" value="Gerencia" style="shape=rhombus;perimeter=rhombusPerimeter;whiteSpace=wrap;html=1;align=center;" vertex="1" parent="1">
          <mxGeometry x="437.5" y="700" width="100" height="50" as="geometry" />
        </mxCell>
        <mxCell id="rkHEos5GqPBNFd0noKPK-34" value="" style="endArrow=none;html=1;rounded=0;entryX=0.505;entryY=0.798;entryDx=0;entryDy=0;entryPerimeter=0;exitX=0.5;exitY=0;exitDx=0;exitDy=0;" edge="1" parent="1" source="rkHEos5GqPBNFd0noKPK-23" target="rkHEos5GqPBNFd0noKPK-27">
          <mxGeometry relative="1" as="geometry">
            <mxPoint x="383" y="1040" as="sourcePoint" />
            <mxPoint x="383" y="1030" as="targetPoint" />
          </mxGeometry>
        </mxCell>
        <mxCell id="rkHEos5GqPBNFd0noKPK-36" value="" style="endArrow=none;html=1;rounded=0;entryX=0;entryY=1;entryDx=0;entryDy=0;" edge="1" parent="1" target="rkHEos5GqPBNFd0noKPK-8">
          <mxGeometry relative="1" as="geometry">
            <mxPoint x="303" y="970" as="sourcePoint" />
            <mxPoint x="463" y="970" as="targetPoint" />
          </mxGeometry>
        </mxCell>
        <mxCell id="rkHEos5GqPBNFd0noKPK-37" value="" style="endArrow=none;html=1;rounded=0;entryX=0.5;entryY=1;entryDx=0;entryDy=0;exitX=0.494;exitY=0.216;exitDx=0;exitDy=0;exitPerimeter=0;" edge="1" parent="1" source="rkHEos5GqPBNFd0noKPK-27" target="rkHEos5GqPBNFd0noKPK-8">
          <mxGeometry relative="1" as="geometry">
            <mxPoint x="375.5" y="990" as="sourcePoint" />
            <mxPoint x="415.5" y="970" as="targetPoint" />
          </mxGeometry>
        </mxCell>
        <mxCell id="rkHEos5GqPBNFd0noKPK-38" value="" style="endArrow=none;html=1;rounded=0;entryX=0;entryY=0.5;entryDx=0;entryDy=0;exitX=1;exitY=0.5;exitDx=0;exitDy=0;" edge="1" parent="1" source="rkHEos5GqPBNFd0noKPK-8" target="rkHEos5GqPBNFd0noKPK-24">
          <mxGeometry relative="1" as="geometry">
            <mxPoint x="433" y="930" as="sourcePoint" />
            <mxPoint x="583" y="930" as="targetPoint" />
          </mxGeometry>
        </mxCell>
        <mxCell id="rkHEos5GqPBNFd0noKPK-39" value="" style="endArrow=none;html=1;rounded=0;entryX=0;entryY=0.5;entryDx=0;entryDy=0;exitX=1;exitY=0.5;exitDx=0;exitDy=0;" edge="1" parent="1" source="rkHEos5GqPBNFd0noKPK-31" target="rkHEos5GqPBNFd0noKPK-8">
          <mxGeometry relative="1" as="geometry">
            <mxPoint x="313" y="940" as="sourcePoint" />
            <mxPoint x="333" y="930" as="targetPoint" />
          </mxGeometry>
        </mxCell>
        <mxCell id="rkHEos5GqPBNFd0noKPK-40" value="" style="endArrow=none;html=1;rounded=0;exitX=1;exitY=1;exitDx=0;exitDy=0;entryX=0;entryY=0;entryDx=0;entryDy=0;" edge="1" parent="1" source="rkHEos5GqPBNFd0noKPK-13" target="rkHEos5GqPBNFd0noKPK-8">
          <mxGeometry relative="1" as="geometry">
            <mxPoint x="293" y="900" as="sourcePoint" />
            <mxPoint x="453" y="900" as="targetPoint" />
          </mxGeometry>
        </mxCell>
        <mxCell id="rkHEos5GqPBNFd0noKPK-41" value="" style="endArrow=none;html=1;rounded=0;exitX=1;exitY=1;exitDx=0;exitDy=0;entryX=0.5;entryY=0;entryDx=0;entryDy=0;" edge="1" parent="1" source="rkHEos5GqPBNFd0noKPK-8" target="rkHEos5GqPBNFd0noKPK-25">
          <mxGeometry relative="1" as="geometry">
            <mxPoint x="433" y="950" as="sourcePoint" />
            <mxPoint x="593" y="950" as="targetPoint" />
          </mxGeometry>
        </mxCell>
        <mxCell id="rkHEos5GqPBNFd0noKPK-44" value="" style="endArrow=none;html=1;rounded=0;exitX=0.5;exitY=0;exitDx=0;exitDy=0;entryX=0.559;entryY=1.007;entryDx=0;entryDy=0;entryPerimeter=0;" edge="1" parent="1" source="rkHEos5GqPBNFd0noKPK-33" target="rkHEos5GqPBNFd0noKPK-7">
          <mxGeometry relative="1" as="geometry">
            <mxPoint x="463" y="640" as="sourcePoint" />
            <mxPoint x="393" y="540" as="targetPoint" />
          </mxGeometry>
        </mxCell>
        <mxCell id="rkHEos5GqPBNFd0noKPK-45" value="" style="endArrow=none;html=1;rounded=0;exitX=0.5;exitY=1;exitDx=0;exitDy=0;entryX=0.5;entryY=0;entryDx=0;entryDy=0;" edge="1" parent="1" source="rkHEos5GqPBNFd0noKPK-33" target="rkHEos5GqPBNFd0noKPK-8">
          <mxGeometry relative="1" as="geometry">
            <mxPoint x="503" y="840" as="sourcePoint" />
            <mxPoint x="663" y="840" as="targetPoint" />
          </mxGeometry>
        </mxCell>
        <mxCell id="rkHEos5GqPBNFd0noKPK-46" value="" style="endArrow=none;html=1;rounded=0;entryX=0.5;entryY=1;entryDx=0;entryDy=0;exitX=0.5;exitY=0;exitDx=0;exitDy=0;" edge="1" parent="1" source="rkHEos5GqPBNFd0noKPK-7" target="rkHEos5GqPBNFd0noKPK-11">
          <mxGeometry relative="1" as="geometry">
            <mxPoint x="383" y="520" as="sourcePoint" />
            <mxPoint x="543" y="520" as="targetPoint" />
          </mxGeometry>
        </mxCell>
        <mxCell id="rkHEos5GqPBNFd0noKPK-47" value="" style="endArrow=none;html=1;rounded=0;entryX=0;entryY=0;entryDx=0;entryDy=0;exitX=0.771;exitY=0.989;exitDx=0;exitDy=0;exitPerimeter=0;" edge="1" parent="1" source="rkHEos5GqPBNFd0noKPK-16" target="rkHEos5GqPBNFd0noKPK-7">
          <mxGeometry relative="1" as="geometry">
            <mxPoint x="313" y="500" as="sourcePoint" />
            <mxPoint x="473" y="500" as="targetPoint" />
          </mxGeometry>
        </mxCell>
        <mxCell id="rkHEos5GqPBNFd0noKPK-48" value="" style="endArrow=none;html=1;rounded=0;entryX=0;entryY=0.5;entryDx=0;entryDy=0;exitX=1;exitY=0.5;exitDx=0;exitDy=0;" edge="1" parent="1" source="rkHEos5GqPBNFd0noKPK-18" target="rkHEos5GqPBNFd0noKPK-7">
          <mxGeometry relative="1" as="geometry">
            <mxPoint x="93" y="520" as="sourcePoint" />
            <mxPoint x="253" y="520" as="targetPoint" />
          </mxGeometry>
        </mxCell>
        <mxCell id="rkHEos5GqPBNFd0noKPK-49" value="" style="endArrow=none;html=1;rounded=0;entryX=0;entryY=0.5;entryDx=0;entryDy=0;exitX=1;exitY=0.5;exitDx=0;exitDy=0;" edge="1" parent="1" source="rkHEos5GqPBNFd0noKPK-7" target="rkHEos5GqPBNFd0noKPK-10">
          <mxGeometry relative="1" as="geometry">
            <mxPoint x="433" y="540" as="sourcePoint" />
            <mxPoint x="593" y="540" as="targetPoint" />
          </mxGeometry>
        </mxCell>
        <mxCell id="rkHEos5GqPBNFd0noKPK-50" value="" style="endArrow=none;html=1;rounded=0;exitX=1;exitY=0;exitDx=0;exitDy=0;entryX=0;entryY=1;entryDx=0;entryDy=0;" edge="1" parent="1" source="rkHEos5GqPBNFd0noKPK-7" target="rkHEos5GqPBNFd0noKPK-12">
          <mxGeometry relative="1" as="geometry">
            <mxPoint x="423" y="530" as="sourcePoint" />
            <mxPoint x="583" y="530" as="targetPoint" />
          </mxGeometry>
        </mxCell>
        <mxCell id="rkHEos5GqPBNFd0noKPK-51" value="SNome" style="ellipse;whiteSpace=wrap;html=1;align=center;" vertex="1" parent="1">
          <mxGeometry x="413" y="1050" width="75" height="30" as="geometry" />
        </mxCell>
        <mxCell id="rkHEos5GqPBNFd0noKPK-52" value="" style="endArrow=none;html=1;rounded=0;exitX=0.533;exitY=0.794;exitDx=0;exitDy=0;exitPerimeter=0;entryX=0.5;entryY=0;entryDx=0;entryDy=0;" edge="1" parent="1" source="rkHEos5GqPBNFd0noKPK-27" target="rkHEos5GqPBNFd0noKPK-51">
          <mxGeometry relative="1" as="geometry">
            <mxPoint x="413" y="1020" as="sourcePoint" />
            <mxPoint x="573" y="1020" as="targetPoint" />
          </mxGeometry>
        </mxCell>
      </root>
    </mxGraphModel>
  </diagram>
</mxfile>
